# xmcd
#
# Track frame offsets: 
#        150
#        11532
#        26743
#        40160
#        52950
#        66928
#        87878
#        100075
#        117646
#        130147
#        146506
#        163527
#        183666
#        198610
#
# Disc length: 2671 seconds
#
# Revision: 0
# Processed by: cddbd v1.5.2PL0 Copyright (c) Steve Scherf et al.
# Submitted via: ExactAudioCopy v1.3
#
DISCID=c20a6d0e
DTITLE=Friends Of Lazy Lester - Lazy Lester Forever
DYEAR=2019
DGENRE=Blues
TTITLE0=I'm So Tired
TTITLE1=They Call Me Lazy
TTITLE2=Blues Stop Knocking At My Door
TTITLE3=Real Combination For Love
TTITLE4=Tell Me Pretty Baby
TTITLE5=Jail
TTITLE6=I Hear You Knocking
TTITLE7=Travelling Days
TTITLE8=I Love You I Need You
TTITLE9=Strange Things Happen
TTITLE10=Blood Stains On The Wall
TTITLE11=Torras, LA, 1933
TTITLE12=Thank You, So Long
TTITLE13=Happy Birthday To You
EXTD=
EXTT0=
EXTT1=
EXTT2=
EXTT3=
EXTT4=
EXTT5=
EXTT6=
EXTT7=
EXTT8=
EXTT9=
EXTT10=
EXTT11=
EXTT12=
EXTT13=
PLAYORDER=
